<svg aria-hidden="true" style="position:absolute;width:0;height:0" xmlns="http://www.w3.org/2000/svg" overflow="hidden">
    <defs>
        <symbol id="icon-Burger" viewBox="0 0 32 32">
            <path fill="none" stroke="var(--color1, #d41443)" stroke-width="1.6" d="M0 6.4h32M0 16h32M0 25.6h32"/>
        </symbol>
        <symbol id="icon-close" viewBox="0 0 32 32">
            <path fill="none" stroke="var(--color2, #fff)" stroke-width="2" d="M2.519 2l26.963 28M2 29.481L30 2.518"/>
        </symbol>
        <symbol id="icon-chevron-right" viewBox="0 0 24 24">
            <path d="M9.707 18.707l6-6c0.391-0.391 0.391-1.024 0-1.414l-6-6c-0.391-0.391-1.024-0.391-1.414 0s-0.391 1.024 0 1.414l5.293 5.293-5.293 5.293c-0.391 0.391-0.391 1.024 0 1.414s1.024 0.391 1.414 0z"></path>
        </symbol>
        <symbol id="icon-Ellipse" viewBox="0 0 32 32">
            <path  d="M30.511 16c0 8.157-6.612 14.769-14.769 14.769S.973 24.157.973 16 7.585 1.231 15.742 1.231 30.511 7.843 30.511 16z"/>
        </symbol>
        <symbol id="icon-facebook" viewBox="0 0 32 32">
            <path d="M16 32c8.837 0 16-7.163 16-16S24.837 0 16 0 0 7.163 0 16s7.163 16 16 16z"/>
            <path fill="var(--color2, #fff)" d="M20.446 15.982h-2.61v9.619h-3.955v-9.619H12v-3.38h1.881v-2.187c0-1.564.739-4.014 3.99-4.014l2.929.012v3.281h-2.125c-.349 0-.839.175-.839.921v1.989h2.955l-.346 3.377z"/>
        </symbol>
        <symbol id="icon-facebook-mobile" viewBox="0 0 32 32">
            <path  d="M15.972 31.515c8.569 0 15.515-6.946 15.515-15.515S24.541.485 15.972.485.457 7.431.457 16s6.946 15.515 15.515 15.515z"/>
            <path fill="var(--color2, #fff)" d="M20.282 15.982h-2.531v9.327h-3.835v-9.327h-1.824v-3.278h1.824v-2.121c0-1.517.716-3.892 3.869-3.892l2.841.012v3.182h-2.061c-.338 0-.813.17-.813.893v1.929h2.866l-.335 3.275z"/>
        </symbol>
        <symbol id="icon-github" viewBox="0 0 32 32">
            <path  d="M32 16c0 8.837-7.163 16-16 16S0 24.837 0 16 7.163 0 16 0s16 7.163 16 16z"/>
            <path fill="var(--color2, #fff)" d="M16 6.588c-5.169 0-9.412 4.242-9.412 9.412 0 4.411 3.095 8.419 7.206 9.412v-3.114a2.307 2.307 0 01-1.197-.03c-.556-.164-1.008-.535-1.344-1.1-.214-.361-.593-.752-.988-.723l-.097-1.099c.855-.073 1.595.521 2.034 1.259.195.328.419.52.708.605.278.082.578.043.926-.08.088-.698.407-.959.648-1.326v-.001c-2.451-.366-3.428-1.666-3.816-2.693-.514-1.363-.238-3.066.671-4.142.018-.021.05-.076.037-.114-.417-1.258.091-2.299.11-2.41.481.142.559-.143 2.089.786l.264.159c.111.066.076.028.186.02A8.031 8.031 0 0116 11.131a8.016 8.016 0 012.002.285l.086.009c-.007-.001.023-.005.075-.036 1.911-1.157 1.842-.779 2.355-.946.019.111.519 1.169.107 2.411-.056.171 1.657 1.739.708 4.256-.388 1.027-1.365 2.328-3.816 2.693v.001c.314.479.692.734.69 1.722v3.887c4.111-.993 7.206-5 7.206-9.412 0-5.169-4.242-9.412-9.412-9.412z"/>
        </symbol>
        <symbol id="menu-vector-arrow" viewBox="0 0 26 32">
            <path fill="none" stroke="var(--color1, #d41443)" stroke-linejoin="round" stroke-linecap="round" stroke-width="6.4" d="M3.542 3.2L20.367 16 3.542 28.8"/>
        </symbol>
        <symbol id="icon-github-mobile" viewBox="0 0 32 32">
            <path  d="M32 16c0 8.837-7.163 16-16 16S0 24.837 0 16 7.163 0 16 0s16 7.163 16 16z"/>
            <path fill="var(--color2, #fff)" d="M16 6.588c-5.169 0-9.412 4.242-9.412 9.412 0 4.411 3.095 8.419 7.206 9.412v-3.114a2.307 2.307 0 01-1.197-.03c-.556-.164-1.008-.535-1.344-1.1-.214-.361-.593-.752-.988-.723l-.097-1.099c.855-.073 1.595.521 2.034 1.258.195.328.419.52.708.605.278.082.577.043.926-.081.088-.698.407-.959.649-1.326v-.001c-2.451-.366-3.428-1.666-3.816-2.693-.514-1.363-.238-3.066.671-4.142.018-.021.05-.076.037-.114-.417-1.258.091-2.3.11-2.41.481.142.559-.143 2.088.786l.264.159c.111.066.076.028.186.02A7.984 7.984 0 0116 11.129a8.016 8.016 0 012.002.285l.086.009c-.008-.001.023-.005.075-.036 1.911-1.157 1.842-.779 2.354-.946.018.111.519 1.169.107 2.411-.056.171 1.657 1.739.708 4.256-.388 1.027-1.365 2.328-3.816 2.693v.001c.314.479.692.734.69 1.722v3.887c4.111-.993 7.206-5 7.206-9.412 0-5.169-4.242-9.412-9.412-9.412z"/>
        </symbol>
        <symbol id="icon-home" viewBox="0 0 35 32">
            <path  d="M32.64 15.401a1.541 1.541 0 00-.129-2.225L17.739.426c-.671-.578-1.745-.566-2.402.027L.515 13.856a1.532 1.532 0 00-.071 2.222l.372.382c.617.633 1.613.708 2.224.168l1.108-.979v14.326c0 .879.722 1.591 1.612 1.591h5.778c.89 0 1.612-.712 1.612-1.591V19.952h7.37v10.023c-.013.878.624 1.59 1.515 1.59h6.123c.89 0 1.613-.711 1.613-1.59V15.851l.683.592c.377.328 1.168.065 1.767-.586l.42-.455z"/>
        </symbol>
        <symbol id="icon-telegram" viewBox="0 0 32 32">
            <path  d="M32 16c0 8.837-7.163 16-16 16S0 24.837 0 16 7.163 0 16 0s16 7.163 16 16z"/>
            <path fill="var(--color2, #fff)" d="M12.867 18.375l-.318 4.169c.454 0 .651-.182.887-.401l2.13-1.9 4.415 3.017c.81.421 1.38.199 1.598-.695l2.898-12.673c.257-1.117-.433-1.554-1.222-1.28L6.223 14.698c-1.162.421-1.145 1.026-.198 1.3l4.354 1.264 10.115-5.907c.476-.294.909-.131.553.163l-8.182 6.857z"/>
        </symbol>
        <symbol id="icon-telegram-mobile" viewBox="0 0 32 32">
            <path  d="M31.258 16c0 8.569-6.946 15.515-15.515 15.515S.228 24.569.228 16 7.174.485 15.743.485 31.258 7.431 31.258 16z"/>
            <path fill="var(--color2, #fff)" d="M12.705 18.303l-.308 4.043c.441 0 .631-.177.86-.389l2.066-1.843 4.281 2.926c.785.408 1.338.193 1.55-.674l2.811-12.289c.249-1.083-.42-1.507-1.185-1.241L6.264 14.738c-1.127.408-1.11.995-.192 1.261l4.223 1.226 9.808-5.728c.462-.285.881-.127.536.158l-7.934 6.649z"/>
        </symbol>
        <symbol id="icon-quotes" viewBox="0 0 43 32">
            <path d="M32.014 0c1.929 0 3.75 0.52 5.464 1.561s3.107 2.537 4.179 4.488c1.029 1.951 1.543 4.249 1.543 6.894s-0.643 5.225-1.929 7.74c-0.429 0.911-1.2 2.081-2.314 3.512-1.157 1.431-2.229 2.667-3.214 3.707l-4.050 4.098-2.893-4.813c2.014-1.257 3.793-2.818 5.336-4.683 1.543-1.821 2.314-3.491 2.314-5.008 0-0.78-0.171-1.409-0.514-1.886-1.5 1.084-3.171 1.626-5.014 1.626-1.329 0-2.593-0.412-3.793-1.236-1.243-0.78-2.229-1.821-2.957-3.122-0.771-1.258-1.157-2.558-1.157-3.902 0-1.518 0.45-2.97 1.35-4.358 0.857-1.388 1.993-2.515 3.407-3.382 1.371-0.824 2.786-1.236 4.243-1.236zM8.936 0c1.929 0 3.75 0.52 5.464 1.561s3.107 2.537 4.179 4.488c1.029 1.951 1.543 4.249 1.543 6.894 0 1.864-0.236 3.534-0.707 5.008-0.471 1.518-1.286 3.1-2.443 4.748-1.114 1.561-2.164 2.862-3.15 3.902-0.986 1.084-2.7 2.884-5.143 5.398l-2.893-4.813c2.014-1.257 3.793-2.818 5.336-4.683 1.543-1.821 2.314-3.491 2.314-5.008 0-0.78-0.171-1.409-0.514-1.886-1.5 1.084-3.171 1.626-5.014 1.626-1.329 0-2.593-0.412-3.793-1.236-1.243-0.78-2.229-1.821-2.957-3.122-0.771-1.258-1.157-2.558-1.157-3.902 0-1.518 0.429-2.97 1.286-4.358s1.993-2.515 3.407-3.382c1.371-0.824 2.786-1.236 4.243-1.236z"></path>
        </symbol>
        <symbol id="icon-form-name" viewBox="0 0 32 32">
            <path d="M16 16c2.946 0 5.333-2.388 5.333-5.333s-2.388-5.333-5.333-5.333v0c-2.946 0-5.333 2.388-5.333 5.333s2.388 5.333 5.333 5.333v0zM16 18.667c-3.561 0-10.667 1.787-10.667 5.333v1.333c0 0.732 0.599 1.333 1.333 1.333h18.667c0.732 0 1.333-0.601 1.333-1.333v-1.333c0-3.547-7.108-5.333-10.667-5.333z"></path>
        </symbol>
        <symbol id="icon-form-phone" viewBox="0 0 32 32">
            <path d="M24.882 19.774l-3.268-0.373c-0.090-0.011-0.194-0.018-0.3-0.018-0.707 0-1.347 0.287-1.81 0.75l-2.368 2.368c-3.669-1.894-6.585-4.81-8.427-8.372l-0.051-0.108 2.382-2.377c0.463-0.463 0.75-1.103 0.75-1.81 0-0.106-0.006-0.21-0.019-0.312l0.001 0.012-0.373-3.243c-0.155-1.287-1.24-2.276-2.557-2.276-0.001 0-0.002 0-0.003 0h-2.226c-1.454 0-2.663 1.209-2.574 2.661 0.683 10.987 9.47 19.762 20.444 20.444 1.452 0.089 2.663-1.12 2.663-2.574v-2.226c0-0.004 0-0.008 0-0.012 0-1.308-0.985-2.386-2.253-2.532l-0.012-0.001z"></path>
        </symbol>
        <symbol id="icon-form-mail" viewBox="0 0 32 32">
            <path d="M26.667 5.333h-21.333c-1.467 0-2.652 1.2-2.652 2.667l-0.014 16c0 1.467 1.2 2.667 2.667 2.667h21.333c1.467 0 2.667-1.2 2.667-2.667v-16c0-1.467-1.2-2.667-2.667-2.667zM26.133 11.001l-9.426 5.892c-0.201 0.126-0.446 0.2-0.708 0.2s-0.506-0.075-0.713-0.204l0.006 0.003-9.426-5.892c-0.336-0.201-0.557-0.562-0.557-0.975 0-0.625 0.507-1.132 1.132-1.132 0.233 0 0.449 0.070 0.629 0.19l-0.004-0.003 8.933 5.586 8.933-5.588c0.176-0.118 0.392-0.188 0.624-0.188 0.625 0 1.132 0.507 1.132 1.132 0 0.413-0.221 0.775-0.552 0.972l-0.005 0.003z"></path>
        </symbol>
        <symbol id="icon-red-arrow" viewBox="0 0 26 32">
            <path fill="none" stroke="#d41443" style="stroke: var(--color1, #d41443)" stroke-linejoin="round" stroke-linecap="round" stroke-miterlimit="4" stroke-width="6.4" d="M5.171 3.2l14.17 12.8-14.17 12.8"></path>
        </symbol>
        <symbol id="icon-close-modal" viewBox="0 0 32 32">
            <path stroke="var(--color2, #D41443)" stroke-width="2" d="M2.519 2l26.963 28M2 29.481L30 2.518"/>
        </symbol>
    </defs>
</svg>
<svg aria-hidden="true" style="position:absolute;width:0;height:0" xmlns="http://www.w3.org/2000/svg" overflow="hidden">
    <defs>
        <symbol id="icon-Burger" viewBox="0 0 32 32">
            <path fill="none" stroke="var(--color1, #d41443)" stroke-width="1.6" d="M0 6.4h32M0 16h32M0 25.6h32"/>
        </symbol>
        <symbol id="icon-close" viewBox="0 0 32 32">
            <path fill="none" stroke="var(--color2, #fff)" stroke-width="2" d="M2.519 2l26.963 28M2 29.481L30 2.518"/>
        </symbol>
        <symbol id="icon-Ellipse" viewBox="0 0 32 32">
            <path  d="M30.511 16c0 8.157-6.612 14.769-14.769 14.769S.973 24.157.973 16 7.585 1.231 15.742 1.231 30.511 7.843 30.511 16z"/>
        </symbol>
        <symbol id="icon-facebook" viewBox="0 0 32 32">
            <path d="M16 32c8.837 0 16-7.163 16-16S24.837 0 16 0 0 7.163 0 16s7.163 16 16 16z"/>
            <path fill="var(--color2, #fff)" d="M20.446 15.982h-2.61v9.619h-3.955v-9.619H12v-3.38h1.881v-2.187c0-1.564.739-4.014 3.99-4.014l2.929.012v3.281h-2.125c-.349 0-.839.175-.839.921v1.989h2.955l-.346 3.377z"/>
        </symbol>
        <symbol id="icon-facebook-mobile" viewBox="0 0 32 32">
            <path  d="M15.972 31.515c8.569 0 15.515-6.946 15.515-15.515S24.541.485 15.972.485.457 7.431.457 16s6.946 15.515 15.515 15.515z"/>
            <path fill="var(--color2, #fff)" d="M20.282 15.982h-2.531v9.327h-3.835v-9.327h-1.824v-3.278h1.824v-2.121c0-1.517.716-3.892 3.869-3.892l2.841.012v3.182h-2.061c-.338 0-.813.17-.813.893v1.929h2.866l-.335 3.275z"/>
        </symbol>
        <symbol id="icon-github" viewBox="0 0 32 32">
            <path  d="M32 16c0 8.837-7.163 16-16 16S0 24.837 0 16 7.163 0 16 0s16 7.163 16 16z"/>
            <path fill="var(--color2, #fff)" d="M16 6.588c-5.169 0-9.412 4.242-9.412 9.412 0 4.411 3.095 8.419 7.206 9.412v-3.114a2.307 2.307 0 01-1.197-.03c-.556-.164-1.008-.535-1.344-1.1-.214-.361-.593-.752-.988-.723l-.097-1.099c.855-.073 1.595.521 2.034 1.259.195.328.419.52.708.605.278.082.578.043.926-.08.088-.698.407-.959.648-1.326v-.001c-2.451-.366-3.428-1.666-3.816-2.693-.514-1.363-.238-3.066.671-4.142.018-.021.05-.076.037-.114-.417-1.258.091-2.299.11-2.41.481.142.559-.143 2.089.786l.264.159c.111.066.076.028.186.02A8.031 8.031 0 0116 11.131a8.016 8.016 0 012.002.285l.086.009c-.007-.001.023-.005.075-.036 1.911-1.157 1.842-.779 2.355-.946.019.111.519 1.169.107 2.411-.056.171 1.657 1.739.708 4.256-.388 1.027-1.365 2.328-3.816 2.693v.001c.314.479.692.734.69 1.722v3.887c4.111-.993 7.206-5 7.206-9.412 0-5.169-4.242-9.412-9.412-9.412z"/>
        </symbol>
        <symbol id="menu-vector-arrow" viewBox="0 0 26 32">
            <path fill="none" stroke="var(--color1, #d41443)" stroke-linejoin="round" stroke-linecap="round" stroke-width="6.4" d="M3.542 3.2L20.367 16 3.542 28.8"/>
        </symbol>
        <symbol id="icon-github-mobile" viewBox="0 0 32 32">
            <path  d="M32 16c0 8.837-7.163 16-16 16S0 24.837 0 16 7.163 0 16 0s16 7.163 16 16z"/>
            <path fill="var(--color2, #fff)" d="M16 6.588c-5.169 0-9.412 4.242-9.412 9.412 0 4.411 3.095 8.419 7.206 9.412v-3.114a2.307 2.307 0 01-1.197-.03c-.556-.164-1.008-.535-1.344-1.1-.214-.361-.593-.752-.988-.723l-.097-1.099c.855-.073 1.595.521 2.034 1.258.195.328.419.52.708.605.278.082.577.043.926-.081.088-.698.407-.959.649-1.326v-.001c-2.451-.366-3.428-1.666-3.816-2.693-.514-1.363-.238-3.066.671-4.142.018-.021.05-.076.037-.114-.417-1.258.091-2.3.11-2.41.481.142.559-.143 2.088.786l.264.159c.111.066.076.028.186.02A7.984 7.984 0 0116 11.129a8.016 8.016 0 012.002.285l.086.009c-.008-.001.023-.005.075-.036 1.911-1.157 1.842-.779 2.354-.946.018.111.519 1.169.107 2.411-.056.171 1.657 1.739.708 4.256-.388 1.027-1.365 2.328-3.816 2.693v.001c.314.479.692.734.69 1.722v3.887c4.111-.993 7.206-5 7.206-9.412 0-5.169-4.242-9.412-9.412-9.412z"/>
        </symbol>
        <symbol id="icon-home" viewBox="0 0 35 32">
            <path  d="M32.64 15.401a1.541 1.541 0 00-.129-2.225L17.739.426c-.671-.578-1.745-.566-2.402.027L.515 13.856a1.532 1.532 0 00-.071 2.222l.372.382c.617.633 1.613.708 2.224.168l1.108-.979v14.326c0 .879.722 1.591 1.612 1.591h5.778c.89 0 1.612-.712 1.612-1.591V19.952h7.37v10.023c-.013.878.624 1.59 1.515 1.59h6.123c.89 0 1.613-.711 1.613-1.59V15.851l.683.592c.377.328 1.168.065 1.767-.586l.42-.455z"/>
        </symbol>
        <symbol id="icon-telegram" viewBox="0 0 32 32">
            <path  d="M32 16c0 8.837-7.163 16-16 16S0 24.837 0 16 7.163 0 16 0s16 7.163 16 16z"/>
            <path fill="var(--color2, #fff)" d="M12.867 18.375l-.318 4.169c.454 0 .651-.182.887-.401l2.13-1.9 4.415 3.017c.81.421 1.38.199 1.598-.695l2.898-12.673c.257-1.117-.433-1.554-1.222-1.28L6.223 14.698c-1.162.421-1.145 1.026-.198 1.3l4.354 1.264 10.115-5.907c.476-.294.909-.131.553.163l-8.182 6.857z"/>
        </symbol>
        <symbol id="icon-telegram-mobile" viewBox="0 0 32 32">
            <path  d="M31.258 16c0 8.569-6.946 15.515-15.515 15.515S.228 24.569.228 16 7.174.485 15.743.485 31.258 7.431 31.258 16z"/>
            <path fill="var(--color2, #fff)" d="M12.705 18.303l-.308 4.043c.441 0 .631-.177.86-.389l2.066-1.843 4.281 2.926c.785.408 1.338.193 1.55-.674l2.811-12.289c.249-1.083-.42-1.507-1.185-1.241L6.264 14.738c-1.127.408-1.11.995-.192 1.261l4.223 1.226 9.808-5.728c.462-.285.881-.127.536.158l-7.934 6.649z"/>
        </symbol>
        <symbol id="icon-quotes" viewBox="0 0 43 32">
            <path d="M32.014 0c1.929 0 3.75 0.52 5.464 1.561s3.107 2.537 4.179 4.488c1.029 1.951 1.543 4.249 1.543 6.894s-0.643 5.225-1.929 7.74c-0.429 0.911-1.2 2.081-2.314 3.512-1.157 1.431-2.229 2.667-3.214 3.707l-4.050 4.098-2.893-4.813c2.014-1.257 3.793-2.818 5.336-4.683 1.543-1.821 2.314-3.491 2.314-5.008 0-0.78-0.171-1.409-0.514-1.886-1.5 1.084-3.171 1.626-5.014 1.626-1.329 0-2.593-0.412-3.793-1.236-1.243-0.78-2.229-1.821-2.957-3.122-0.771-1.258-1.157-2.558-1.157-3.902 0-1.518 0.45-2.97 1.35-4.358 0.857-1.388 1.993-2.515 3.407-3.382 1.371-0.824 2.786-1.236 4.243-1.236zM8.936 0c1.929 0 3.75 0.52 5.464 1.561s3.107 2.537 4.179 4.488c1.029 1.951 1.543 4.249 1.543 6.894 0 1.864-0.236 3.534-0.707 5.008-0.471 1.518-1.286 3.1-2.443 4.748-1.114 1.561-2.164 2.862-3.15 3.902-0.986 1.084-2.7 2.884-5.143 5.398l-2.893-4.813c2.014-1.257 3.793-2.818 5.336-4.683 1.543-1.821 2.314-3.491 2.314-5.008 0-0.78-0.171-1.409-0.514-1.886-1.5 1.084-3.171 1.626-5.014 1.626-1.329 0-2.593-0.412-3.793-1.236-1.243-0.78-2.229-1.821-2.957-3.122-0.771-1.258-1.157-2.558-1.157-3.902 0-1.518 0.429-2.97 1.286-4.358s1.993-2.515 3.407-3.382c1.371-0.824 2.786-1.236 4.243-1.236z"></path>
            <symbol id="icon-telegram-1-2" viewBox="0 0 40 32">
                <path d="M16.206 20.75l-0.636 8.34c0.908 0 1.302-0.366 1.774-0.802l4.26-3.8 8.83 6.034c1.62 0.84 2.76 0.398 3.196-1.39l5.796-25.346h0.002c0.514-2.236-0.866-3.108-2.444-2.56l-34.064 12.172c-2.324 0.84-2.29 2.052-0.396 2.6l8.71 2.528 20.23-11.814c0.952-0.588 1.816-0.264 1.104 0.326l-16.362 13.712z"></path>
            </symbol>
            <symbol id="icon-Facebook" viewBox="0 0 16 32">
                <path d="M14.266 15.97h-4.176v15.39h-6.328v-15.392h-3.008v-5.408h3.008v-3.498c0-2.504 1.184-6.422 6.384-6.422l4.688 0.019v5.25h-3.402c-0.557 0-1.342 0.282-1.342 1.475v3.184h4.73l-0.554 5.4z"></path>
            </symbol>
            <symbol id="icon-VectorGitHub" viewBox="0 0 32 32">
                <path d="M16 0.941c-8.272 0-15.059 6.789-15.059 15.059 0 7.059 4.954 13.47 11.53 15.059v-4.982c-0.651 0.144-1.251 0.147-1.915-0.048-0.89-0.264-1.613-0.856-2.149-1.76-0.342-0.576-0.949-1.203-1.581-1.157l-0.155-1.758c1.368-0.117 2.55 0.834 3.253 2.014 0.312 0.525 0.672 0.832 1.133 0.968 0.445 0.131 0.923 0.069 1.482-0.128 0.139-1.117 0.651-1.536 1.037-2.123-3.922-0.586-5.485-2.667-6.106-4.309-0.822-2.181-0.381-4.906 1.072-6.627 0.029-0.032 0.080-0.122 0.061-0.182-0.667-2.014 0.144-3.68 0.176-3.856 0.768 0.227 0.893-0.229 3.341 1.258l0.422 0.254c0.176 0.106 0.122 0.045 0.299 0.032 0.943-0.266 2.029-0.428 3.15-0.445l0.010-0c1.147 0.018 2.247 0.183 3.294 0.478l-0.090-0.022 0.138 0.014c-0.013-0.002 0.037-0.010 0.12-0.059 3.056-1.851 2.947-1.246 3.766-1.512 0.030 0.176 0.832 1.869 0.171 3.856-0.088 0.275 2.651 2.784 1.133 6.811-0.621 1.643-2.184 3.723-6.106 4.309 0.502 0.768 1.107 1.174 1.104 2.755v6.219c6.576-1.589 11.53-8 11.53-15.059 0-8.272-6.787-15.059-15.059-15.059z"></path>
            </symbol>
        </symbol>
        <symbol id="icon-form-name" viewBox="0 0 32 32">
            <path d="M16 16c2.946 0 5.333-2.388 5.333-5.333s-2.388-5.333-5.333-5.333v0c-2.946 0-5.333 2.388-5.333 5.333s2.388 5.333 5.333 5.333v0zM16 18.667c-3.561 0-10.667 1.787-10.667 5.333v1.333c0 0.732 0.599 1.333 1.333 1.333h18.667c0.732 0 1.333-0.601 1.333-1.333v-1.333c0-3.547-7.108-5.333-10.667-5.333z"></path>
        </symbol>
        <symbol id="icon-form-phone" viewBox="0 0 32 32">
            <path d="M24.882 19.774l-3.268-0.373c-0.090-0.011-0.194-0.018-0.3-0.018-0.707 0-1.347 0.287-1.81 0.75l-2.368 2.368c-3.669-1.894-6.585-4.81-8.427-8.372l-0.051-0.108 2.382-2.377c0.463-0.463 0.75-1.103 0.75-1.81 0-0.106-0.006-0.21-0.019-0.312l0.001 0.012-0.373-3.243c-0.155-1.287-1.24-2.276-2.557-2.276-0.001 0-0.002 0-0.003 0h-2.226c-1.454 0-2.663 1.209-2.574 2.661 0.683 10.987 9.47 19.762 20.444 20.444 1.452 0.089 2.663-1.12 2.663-2.574v-2.226c0-0.004 0-0.008 0-0.012 0-1.308-0.985-2.386-2.253-2.532l-0.012-0.001z"></path>
        </symbol>
        <symbol id="icon-form-mail" viewBox="0 0 32 32">
            <path d="M26.667 5.333h-21.333c-1.467 0-2.652 1.2-2.652 2.667l-0.014 16c0 1.467 1.2 2.667 2.667 2.667h21.333c1.467 0 2.667-1.2 2.667-2.667v-16c0-1.467-1.2-2.667-2.667-2.667zM26.133 11.001l-9.426 5.892c-0.201 0.126-0.446 0.2-0.708 0.2s-0.506-0.075-0.713-0.204l0.006 0.003-9.426-5.892c-0.336-0.201-0.557-0.562-0.557-0.975 0-0.625 0.507-1.132 1.132-1.132 0.233 0 0.449 0.070 0.629 0.19l-0.004-0.003 8.933 5.586 8.933-5.588c0.176-0.118 0.392-0.188 0.624-0.188 0.625 0 1.132 0.507 1.132 1.132 0 0.413-0.221 0.775-0.552 0.972l-0.005 0.003z"></path>
        </symbol>
        <symbol id="icon-close-modal" viewBox="0 0 32 32">
            <path stroke="var(--color2, #D41443)" stroke-width="2" d="M2.519 2l26.963 28M2 29.481L30 2.518"/>
        </symbol>
        <symbol id="icon-read-more" viewBox="0 0 26 32">
            <path fill="none" stroke-linejoin="round" stroke-linecap="round" stroke-miterlimit="4" stroke-width="6.4" d="M5.171 3.2l14.17 12.8-14.17 12.8"></path>
        </symbol>
    </defs>
</svg>